<svg width="296" height="297" viewBox="0 0 296 297" fill="none" xmlns="http://www.w3.org/2000/svg">
<path d="M295.5 148.5C295.5 230.24 229.46 296.5 148 296.5C66.5396 296.5 0.5 230.24 0.5 148.5C0.5 66.7603 66.5396 0.5 148 0.5C229.46 0.5 295.5 66.7603 295.5 148.5Z" fill="#F9F9F6" stroke="#ECF4FA"/>
<path d="M186.195 225.6H205.395C215.999 225.6 224.595 217.004 224.595 206.4V187.2" stroke="#333333" stroke-width="19.2" stroke-linecap="round" stroke-linejoin="round"/>
<path d="M109.392 72H90.1922C79.5883 72 70.9922 80.5961 70.9922 91.2V110.4" stroke="#333333" stroke-width="19.2" stroke-linecap="round" stroke-linejoin="round"/>
<path d="M109.392 225.6H90.1922C79.5883 225.6 70.9922 217.004 70.9922 206.4V187.2" stroke="#333333" stroke-width="19.2" stroke-linecap="round" stroke-linejoin="round"/>
<path d="M186.195 72H205.395C215.999 72 224.595 80.5961 224.595 91.2V110.4" stroke="#333333" stroke-width="19.2" stroke-linecap="round" stroke-linejoin="round"/>
<path d="M90.1953 139.201V158.401" stroke="#333333" stroke-width="19.2" stroke-linecap="round" stroke-linejoin="round"/>
<path d="M118.992 120V177.6" stroke="#333333" stroke-width="19.2" stroke-linecap="round" stroke-linejoin="round"/>
<path d="M176.594 120V177.6" stroke="#333333" stroke-width="19.2" stroke-linecap="round" stroke-linejoin="round"/>
<path d="M205.391 139.201V158.401" stroke="#333333" stroke-width="19.2" stroke-linecap="round" stroke-linejoin="round"/>
<path d="M147.797 139.201V158.401" stroke="#333333" stroke-width="19.2" stroke-linecap="round" stroke-linejoin="round"/>
</svg>
