<svg width="113" height="114" viewBox="0 0 113 114" fill="none" xmlns="http://www.w3.org/2000/svg">
<path d="M111.96 57.2338C111.96 88.4159 86.9379 113.691 56.0754 113.691C25.213 113.691 0.190733 88.4159 0.190733 57.2338C0.190733 26.0517 25.213 0.776914 56.0754 0.776914C86.9379 0.776914 111.96 26.0517 111.96 57.2338Z" fill="#F9F9F6" stroke="#ECF4FA" stroke-width="0.381465"/>
<path d="M27.4945 33.1679C27.6576 33.5179 28.0065 33.7299 28.3767 33.7299C28.4663 33.7299 28.5577 33.7174 28.6468 33.6919C29.1072 33.5587 29.4028 33.1097 29.3425 32.6336C29.249 31.8998 29.2311 29.6686 30.3274 29.0643L29.3871 27.3586C28.1853 28.0217 27.6749 29.2747 27.4733 30.4241C25.8292 29.4969 23.8886 29.698 23.7734 29.711L23.9887 31.6471C24.0164 31.6433 26.6619 31.3867 27.4945 33.1679Z" fill="black"/>
<path d="M33.2507 38.0519C33.1567 38.5226 33.4181 38.9916 33.8676 39.1574C33.9785 39.1982 34.0926 39.2172 34.2051 39.2172C34.5497 39.2172 34.8797 39.034 35.0558 38.7177C35.4167 38.0709 36.7293 36.2555 37.967 36.4284L38.2219 34.4966C36.8609 34.3189 35.7075 35.0233 34.8628 35.8283C34.0888 34.1069 32.4081 33.1177 32.3077 33.0596L31.332 34.7456C31.3559 34.7603 33.6382 36.1239 33.2507 38.0519Z" fill="black"/>
<path d="M64.2266 60.1633H67.4905V62.1114H64.2266V60.1633Z" fill="black"/>
<path d="M64.8867 54.3789H66.8347V58.4695H64.8867V54.3789Z" fill="black"/>
<path d="M52.1992 56.7168H53.9527V58.6648H52.1992V56.7168Z" fill="black"/>
<path d="M52.1992 59.7959H53.9527V61.7439H52.1992V59.7959Z" fill="black"/>
<path d="M52.1992 62.6301H53.9527V64.5781H52.1992V62.6301Z" fill="black"/>
<path d="M52.1992 65.7109H53.9527V67.659H52.1992V65.7109Z" fill="black"/>
<path d="M52.1992 68.8916H58.3358V70.8396H52.1992V68.8916Z" fill="black"/>
<path d="M70.3028 38.6099H82.18C84.4933 38.6099 86.3755 36.7283 86.3755 34.4154C86.3755 32.1027 84.4939 30.2209 82.18 30.2209H82.1311C81.5218 27.4353 79.0503 25.3813 76.1006 25.3813C73.4281 25.3813 71.0963 27.0935 70.2571 29.56C67.783 29.5839 65.7773 31.6047 65.7773 34.085C65.779 36.5793 67.8081 38.6099 70.3028 38.6099ZM70.3028 31.507C70.4648 31.507 70.6278 31.5233 70.8007 31.5576L71.7687 31.75L71.9481 30.7798C72.3182 28.7801 74.0652 27.3289 76.1013 27.3289C78.3678 27.3289 80.2223 29.1007 80.3229 31.3635L80.3784 32.5984L81.566 32.2554C81.7671 32.1967 81.9725 32.1679 82.1802 32.1679C83.4189 32.1679 84.4276 33.1756 84.4276 34.4144C84.4276 35.6532 83.4194 36.6609 82.1802 36.6609L70.3029 36.6614C68.8827 36.6614 67.726 35.5054 67.726 34.0841C67.726 32.6628 68.8826 31.5071 70.3029 31.5071L70.3028 31.507Z" fill="black"/>
<path d="M27.3633 77.2683H74.0184V79.2163H27.3633V77.2683Z" fill="black"/>
<path d="M76.5625 77.2683H84.5367V79.2163H76.5625V77.2683Z" fill="black"/>
<path d="M33.9844 82.4304H39.6339V84.3784H33.9844V82.4304Z" fill="black"/>
<path d="M42.3672 82.4304H76.5675V84.3784H42.3672V82.4304Z" fill="black"/>
<path d="M43.4336 87.5928H69.1475V89.5408H43.4336V87.5928Z" fill="black"/>
<path d="M42.8701 47.2148C41.9983 47.6898 40.8047 48.3415 40.8047 49.7688H42.7527C42.7527 49.5171 43.1881 49.26 43.8028 48.9247C44.6746 48.4496 45.8694 47.7979 45.8694 46.3695C45.8694 44.9411 44.6747 44.2906 43.8039 43.8144C43.1881 43.4796 42.7527 43.222 42.7527 42.9703C42.7527 42.7192 43.1881 42.4632 43.8028 42.1273C44.6758 41.6523 45.8694 41.0011 45.8694 39.5737H43.9214C43.9214 39.8254 43.486 40.0819 42.8713 40.4168C41.9995 40.8918 40.8047 41.543 40.8047 42.9703C40.8047 44.3988 41.9994 45.0493 42.8702 45.5254C43.486 45.8602 43.9214 46.1179 43.9214 46.3695C43.9214 46.6217 43.486 46.88 42.8701 47.2148Z" fill="black"/>
<path d="M54.8077 43.5065C53.9358 43.9816 52.7422 44.6333 52.7422 46.0605H54.6902C54.6902 45.8088 55.1256 45.5518 55.7403 45.2164C56.6121 44.7413 57.8069 44.0897 57.8069 42.6613C57.8069 41.2329 56.6122 40.5823 55.7414 40.1062C55.1256 39.7714 54.6902 39.5137 54.6902 39.2621C54.6902 39.011 55.1256 38.755 55.7403 38.4191C56.6133 37.944 57.8069 37.2928 57.8069 35.8655H55.8589C55.8589 36.1171 55.4235 36.3737 54.8088 36.7085C53.937 37.1836 52.7422 37.8347 52.7422 39.2621C52.7422 40.6905 53.9369 41.341 54.8077 41.8172C55.4235 42.152 55.8589 42.4096 55.8589 42.6613C55.8589 42.9135 55.4224 43.1717 54.8077 43.5065Z" fill="black"/>
<path d="M66.292 46.7357C65.4202 47.2108 64.2266 47.8625 64.2266 49.2908H66.1746C66.1746 49.0392 66.61 48.7821 67.2258 48.4467C68.0976 47.9717 69.2913 47.32 69.2913 45.8927C69.2913 44.4654 68.0977 43.8138 67.2258 43.3376C66.61 43.0028 66.1746 42.7452 66.1746 42.4935C66.1746 42.2419 66.61 41.9853 67.2258 41.6505C68.0976 41.1755 69.2913 40.5243 69.2913 39.0969H67.3432C67.3432 39.348 66.9079 39.604 66.2931 39.9399C65.4213 40.415 64.2266 41.0662 64.2266 42.4935C64.2266 43.9209 65.4202 44.5725 66.292 45.0486C66.9078 45.3834 67.3432 45.6411 67.3432 45.8927C67.3432 46.1444 66.9073 46.4009 66.292 46.7357Z" fill="black"/>
<path d="M86.3796 65.8726H84.4315V71.5318H83.2667V56.1592C87.2845 55.676 90.4099 52.2523 90.4099 48.1067C90.4099 43.6307 86.7687 39.9907 82.2927 39.9907C77.8167 39.9902 74.1756 43.6307 74.1756 48.1067C74.1756 52.2523 77.3009 55.6759 81.3187 56.1592V71.5318H80.3159V67.9554H78.3679V71.5318H77.4846C77.5151 71.0612 77.5352 70.5888 77.5352 70.1198C77.5352 58.0975 67.7543 48.3159 55.734 48.3159C43.7122 48.3159 33.9315 58.0968 33.9315 70.1198C33.9315 70.5905 33.9516 71.0617 33.982 71.5318H30.8356L30.8361 56.1592C34.8528 55.6754 37.9792 52.2523 37.9792 48.1067C37.9792 43.6307 34.3381 39.9907 29.8621 39.9907C25.3861 39.9902 21.7461 43.6307 21.7461 48.1067C21.7461 52.2523 24.8714 55.6759 28.8892 56.1592V71.5318H27.8494V65.8726H25.9014V71.5318H24.8627V67.9554H22.9147V71.5318H22.0336V73.4799H89.4352V71.5318H86.38L86.3796 65.8726ZM76.1236 48.1066C76.1236 44.7052 78.8914 41.9386 82.2927 41.9386C85.6941 41.9386 88.4619 44.7058 88.4619 48.1066C88.4619 51.176 86.2062 53.7218 83.2668 54.1914V49.7692H81.3187V54.1914C78.3793 53.7212 76.1236 51.1758 76.1236 48.1066ZM23.694 48.1066C23.694 44.7052 26.4612 41.9386 29.8631 41.9386C33.2651 41.9386 36.0322 44.7058 36.0322 48.1066C36.0322 51.176 33.7766 53.7218 30.8371 54.1914V49.7692H28.8891V54.1914C25.9497 53.7212 23.694 51.1758 23.694 48.1066ZM35.88 70.1193C35.88 59.1714 44.7864 50.2633 55.7345 50.2633C66.6824 50.2633 75.5877 59.1703 75.5877 70.1193C75.5877 70.5883 75.5659 71.0606 75.5322 71.5313H68.4658L68.4652 62.431H63.2533V71.5313H61.6086V66.0667H57.0696V53.7296H49.0291V71.5317H48.2709V62.4314H40.8364V71.5317H35.9353C35.9022 71.0626 35.8799 70.5919 35.8799 70.1197L35.88 70.1193ZM66.5168 71.5313H65.2009V64.379H66.5168V71.5313ZM59.6591 68.0147V71.5313H50.9768V55.6772H55.1212V68.0143L59.6591 68.0147ZM43.5796 65.8722V71.5314H42.7838V64.3791H46.3223V71.5314H45.5265V65.8722H43.5796Z" fill="black"/>
</svg>
