<svg width="294" height="297" viewBox="0 0 294 297" fill="none" xmlns="http://www.w3.org/2000/svg">
<path d="M293.5 148.5C293.5 230.243 227.905 296.5 147 296.5C66.0951 296.5 0.5 230.243 0.5 148.5C0.5 66.7571 66.0951 0.5 147 0.5C227.905 0.5 293.5 66.7571 293.5 148.5Z" fill="#F9F9F6" stroke="#ECF4FA"/>
<path d="M72.0828 85.4124C72.5103 86.33 73.425 86.8857 74.3953 86.8857C74.6304 86.8857 74.8698 86.8529 75.1035 86.786C76.3103 86.4369 77.0854 85.2599 76.9273 84.0118C76.6822 82.0882 76.6352 76.239 79.5091 74.6549L77.0441 70.1836C73.8938 71.9219 72.5557 75.2064 72.0272 78.2197C67.7171 75.7889 62.6301 76.3161 62.3281 76.3503L62.8924 81.4256C62.965 81.4156 69.9001 80.743 72.0828 85.4124Z" fill="black"/>
<path d="M87.1547 98.2156C86.9082 99.4495 87.5936 100.679 88.7719 101.114C89.0626 101.221 89.3618 101.27 89.6568 101.27C90.5601 101.27 91.425 100.79 91.8867 99.961C92.8328 98.2655 96.2737 93.5065 99.5182 93.9596L100.186 88.8956C96.6187 88.4297 93.5952 90.2763 91.3807 92.3865C89.3518 87.874 84.946 85.2809 84.6826 85.1284L82.125 89.5482C82.1877 89.5867 88.1706 93.1615 87.1547 98.2156Z" fill="black"/>
<path d="M168.363 156.18H176.92V161.287H168.363V156.18Z" fill="black"/>
<path d="M170.09 141.017H175.197V151.74H170.09V141.017Z" fill="black"/>
<path d="M136.836 147.145H141.433V152.252H136.836V147.145Z" fill="black"/>
<path d="M136.836 155.217H141.433V160.324H136.836V155.217Z" fill="black"/>
<path d="M136.836 162.647H141.433V167.754H136.836V162.647Z" fill="black"/>
<path d="M136.836 170.723H141.433V175.83H136.836V170.723Z" fill="black"/>
<path d="M136.836 179.062H152.923V184.169H136.836V179.062Z" fill="black"/>
<path d="M184.301 99.6784H215.437C221.501 99.6784 226.435 94.7457 226.435 88.6826C226.435 82.6199 221.502 77.6868 215.437 77.6868H215.308C213.711 70.3843 207.232 65 199.5 65C192.494 65 186.381 69.4884 184.181 75.9542C177.695 76.0169 172.438 81.3144 172.438 87.8163C172.442 94.355 177.761 99.6784 184.301 99.6784ZM184.301 81.0583C184.726 81.0583 185.153 81.1011 185.606 81.1908L188.144 81.6952L188.614 79.1518C189.584 73.9098 194.164 70.1054 199.501 70.1054C205.443 70.1054 210.305 74.7503 210.568 80.682L210.714 83.9193L213.827 83.0202C214.354 82.8663 214.893 82.7908 215.437 82.7908C218.684 82.7908 221.329 85.4325 221.329 88.6799C221.329 91.9273 218.686 94.569 215.437 94.569L184.301 94.5704C180.578 94.5704 177.546 91.5398 177.546 87.8139C177.546 84.0881 180.578 81.0585 184.301 81.0585L184.301 81.0583Z" fill="black"/>
<path d="M71.7266 201.021H194.032V206.127H71.7266V201.021Z" fill="black"/>
<path d="M200.703 201.021H221.607V206.127H200.703V201.021Z" fill="black"/>
<path d="M89.0859 214.553H103.896V219.66H89.0859V214.553Z" fill="black"/>
<path d="M111.047 214.553H200.702V219.66H111.047V214.553Z" fill="black"/>
<path d="M113.855 228.086H181.264V233.193H113.855V228.086Z" fill="black"/>
<path d="M112.375 122.235C110.09 123.481 106.961 125.189 106.961 128.931H112.068C112.068 128.271 113.209 127.597 114.82 126.718C117.106 125.472 120.238 123.764 120.238 120.02C120.238 116.275 117.106 114.57 114.823 113.321C113.209 112.444 112.068 111.768 112.068 111.109C112.068 110.45 113.209 109.779 114.821 108.899C117.109 107.653 120.238 105.946 120.238 102.205H115.131C115.131 102.864 113.99 103.537 112.378 104.415C110.093 105.66 106.961 107.367 106.961 111.109C106.961 114.853 110.093 116.559 112.376 117.807C113.99 118.685 115.131 119.36 115.131 120.02C115.131 120.681 113.99 121.358 112.375 122.235Z" fill="black"/>
<path d="M143.657 112.515C141.371 113.76 138.242 115.468 138.242 119.21H143.349C143.349 118.55 144.49 117.876 146.102 116.997C148.387 115.752 151.519 114.043 151.519 110.299C151.519 106.555 148.387 104.849 146.105 103.601C144.49 102.723 143.349 102.048 143.349 101.388C143.349 100.73 144.49 100.059 146.102 99.178C148.39 97.9327 151.519 96.2257 151.519 92.4839H146.413C146.413 93.1436 145.271 93.8161 143.66 94.6938C141.374 95.9392 138.242 97.6462 138.242 101.388C138.242 105.133 141.374 106.838 143.657 108.086C145.271 108.964 146.412 109.639 146.412 110.299C146.412 110.96 145.268 111.637 143.657 112.515Z" fill="black"/>
<path d="M173.778 120.98C171.492 122.226 168.363 123.934 168.363 127.679H173.47C173.47 127.019 174.611 126.345 176.226 125.466C178.511 124.22 181.64 122.512 181.64 118.771C181.64 115.029 178.511 113.321 176.226 112.072C174.611 111.195 173.47 110.519 173.47 109.86C173.47 109.2 174.611 108.527 176.226 107.65C178.511 106.404 181.64 104.697 181.64 100.956H176.534C176.534 101.614 175.392 102.285 173.781 103.166C171.495 104.411 168.363 106.118 168.363 109.86C168.363 113.601 171.492 115.31 173.778 116.558C175.392 117.435 176.533 118.111 176.533 118.771C176.533 119.43 175.391 120.103 173.778 120.98Z" fill="black"/>
<path d="M226.435 171.146H221.328V185.982H218.275V145.683C228.807 144.416 237 135.441 237 124.574C237 112.84 227.455 103.298 215.721 103.298C203.988 103.296 194.442 112.84 194.442 124.574C194.442 135.441 202.635 144.416 213.168 145.683V185.982H210.539V176.606H205.432V185.982H203.117C203.197 184.748 203.249 183.51 203.249 182.28C203.249 150.764 177.609 125.122 146.098 125.122C114.584 125.122 88.9437 150.762 88.9437 182.28C88.9437 183.514 88.9964 184.75 89.0762 185.982H80.8278L80.8292 145.683C91.3588 144.415 99.5547 135.441 99.5547 124.574C99.5547 112.84 90.0096 103.298 78.2759 103.298C66.5422 103.296 57 112.84 57 124.574C57 135.441 65.1929 144.416 75.7255 145.683V185.982H72.9997V171.146H67.893V185.982H65.1701V176.606H60.0635V185.982H57.7538V191.089H234.445V185.982H226.436L226.435 171.146ZM199.549 124.573C199.549 115.657 206.805 108.404 215.721 108.404C224.638 108.404 231.893 115.658 231.893 124.573C231.893 132.62 225.98 139.293 218.275 140.524V128.932H213.168V140.524C205.462 139.292 199.549 132.619 199.549 124.573ZM62.1064 124.573C62.1064 115.657 69.3605 108.404 78.2786 108.404C87.1967 108.404 94.4507 115.658 94.4507 124.573C94.4507 132.62 88.5375 139.293 80.8319 140.524V128.932H75.7252V140.524C68.0196 139.292 62.1064 132.619 62.1064 124.573ZM94.0516 182.279C94.0516 153.579 117.399 130.227 146.1 130.227C174.799 130.227 198.144 153.576 198.144 182.279C198.144 183.509 198.087 184.747 197.999 185.98H179.474L179.473 162.124H165.81V185.98H161.498V171.655H149.599V139.314H128.522V185.982H126.534V162.125H107.045V185.982H94.1966C94.1097 184.752 94.0513 183.518 94.0513 182.28L94.0516 182.279ZM174.365 185.98H170.916V167.231H174.365V185.98ZM156.388 176.762V185.98H133.627V144.419H144.492V176.761L156.388 176.762ZM114.236 171.145V185.981H112.15V167.231H121.426V185.981H119.34V171.145H114.236Z" fill="black"/>
</svg>
