<svg width="183" height="183" viewBox="0 0 183 183" fill="none" xmlns="http://www.w3.org/2000/svg">
<g clip-path="url(#clip0_286_263)">
<path d="M122.042 70.86H116.542C110.482 70.86 109.662 70.76 107.342 69.59C105.632 68.71 103.492 66.54 102.622 64.78C101.572 62.63 101.352 61.12 101.352 55.75V51L83.2319 51.02C68.2219 51.02 64.9219 51.08 64.1219 51.33C62.8719 51.71 61.3819 53.04 60.7119 54.38L60.1719 55.47V127.21L60.7119 128.3C61.4219 129.72 62.8619 130.98 64.2419 131.37C65.1619 131.64 68.7619 131.68 91.5419 131.64L117.752 131.58L118.822 131.02C119.432 130.71 120.242 130.06 120.642 129.58C122.122 127.84 122.042 129.87 122.042 98.83V70.86ZM116.062 90.18C116.482 91.08 116.482 91.62 116.062 92.52C115.332 94.07 116.962 93.96 92.0419 94.02C79.7519 94.06 69.2819 94.02 68.7719 93.96C67.6219 93.79 66.4919 92.83 66.3019 91.85C66.0719 90.6 66.9519 89.24 68.2219 88.84C68.5519 88.73 79.0719 88.67 91.6119 88.69C117.012 88.73 115.312 88.63 116.052 90.17L116.062 90.18ZM72.0219 64.57C72.3819 64.36 72.4219 64.19 72.2719 63.5C72.0619 62.62 72.3119 61.18 72.8319 60.16C73.3119 59.22 74.8019 57.9 75.9419 57.36C77.8819 56.44 80.4119 56.82 81.6919 58.22C81.9819 58.53 82.4619 58.91 82.7619 59.08C83.7219 59.56 84.0619 60.63 83.9519 62.8C83.8919 63.89 83.9519 64.85 84.0519 65.06C84.4119 65.6 83.8419 67.71 83.1719 68.36C82.8619 68.65 82.5019 69.26 82.3519 69.72C81.7219 71.81 80.3419 72.98 78.3219 73.13C76.6719 73.26 75.4619 72.77 74.4319 71.63C73.9919 71.13 73.5119 70.35 73.3619 69.92C73.2119 69.48 72.8019 68.54 72.4619 67.85C72.1319 67.16 71.8119 66.2 71.7319 65.72C71.6219 65.01 71.6719 64.82 72.0019 64.59L72.0219 64.57ZM66.3419 81.36C66.4019 80.02 66.5719 78.58 66.6719 78.16C66.9619 76.99 67.7219 76.05 68.7219 75.57C69.2419 75.34 70.5619 74.71 71.6519 74.17C72.7619 73.63 73.7219 73.19 73.7819 73.19C73.9119 73.17 74.6019 75.22 75.9719 79.69C76.1619 80.34 76.3919 80.84 76.4719 80.8C76.5519 80.76 76.7819 80.15 76.9919 79.44C77.3719 78.19 77.3719 78.16 76.9319 77.27C76.6819 76.77 76.4719 76.16 76.4719 75.93C76.4719 74.93 78.3919 74.47 79.1919 75.26C79.7319 75.8 79.7119 76.01 79.1119 77.23L78.6119 78.23L79.0519 79.46C79.2819 80.13 79.5519 80.69 79.6119 80.69C79.6719 80.69 80.2819 79 80.9519 76.91C81.6019 74.84 82.2019 73.17 82.2919 73.21C88.1419 75.93 88.4119 76.07 89.0019 77.22C89.4819 78.14 89.5419 78.56 89.6119 81.05L89.6919 83.83H66.1919L66.3419 81.36ZM95.4119 125.15L94.6619 125.84L81.0519 125.8L67.4419 125.74L66.8619 125.07C65.6519 123.71 65.9419 121.75 67.4919 120.99C68.1619 120.63 69.2719 120.61 81.1419 120.61C91.9119 120.61 94.1619 120.65 94.7719 120.9C96.4819 121.63 96.8419 123.85 95.4219 125.14L95.4119 125.15ZM115.482 114.49L114.732 115.18H67.9519L67.3019 114.66C65.8219 113.41 66.0519 111.13 67.7619 110.29C68.3719 110 70.9019 109.96 91.3219 109.96C111.742 109.96 114.252 109.98 114.942 110.34C116.552 111.13 116.842 113.27 115.482 114.5V114.49ZM115.162 104.16C114.602 104.49 112.842 104.52 91.2519 104.52H67.9419L67.2919 104C66.3519 103.18 66.1019 102.2 66.5419 101.03C66.8319 100.28 67.0819 100.01 67.7719 99.69C68.5819 99.31 69.4819 99.29 91.6219 99.36C113.402 99.4 114.632 99.42 115.182 99.78C115.792 100.2 116.392 101.31 116.392 102.02C116.392 102.77 115.812 103.8 115.162 104.17V104.16Z" fill="black"/>
<path d="M91.06 0C40.77 0 0 40.91 0 91.37C0 141.83 40.77 182.74 91.06 182.74C141.35 182.74 182.12 141.83 182.12 91.37C182.12 40.91 141.36 0 91.06 0ZM127.4 97.82C127.36 125.33 127.32 127.9 127 128.82C125.6 132.79 122.65 135.64 118.97 136.58C117.82 136.87 114.66 136.91 91.08 136.91C61.71 136.91 63.3 136.97 60.67 135.59C57.79 134.06 55.38 130.62 54.92 127.4C54.65 125.41 54.65 57.27 54.92 55.28C55.51 51.1 58.83 47.36 62.97 46.17C64.12 45.84 65.96 45.79 84.65 45.79L105.07 45.77L106.36 46.96C111.23 51.45 126.78 66.61 127.1 67.15C127.43 67.78 127.46 69.45 127.39 97.82H127.4Z" fill="black"/>
</g>
<defs>
<clipPath id="clip0_286_263">
<rect width="182.13" height="182.74" fill="white"/>
</clipPath>
</defs>
</svg>
