<svg width="215" height="53" viewBox="0 0 215 53" fill="none" xmlns="http://www.w3.org/2000/svg">
<path d="M148.798 27.1001C148.798 26.4001 148.698 25.9001 148.398 25.4001C148.198 24.8001 147.798 24.4001 147.298 24.1001C146.798 23.8001 146.298 23.6001 145.598 23.6001C144.798 23.6001 144.198 23.8001 143.598 24.2001C143.098 24.6001 142.598 25.1001 142.398 25.7001C142.198 26.1001 142.098 26.6001 142.098 27.1001H148.798Z" fill="black"/>
<path d="M46.7977 27.1001C46.7977 26.4001 46.6976 25.9001 46.3976 25.4001C46.1976 24.8001 45.7977 24.4001 45.2977 24.1001C44.7977 23.8001 44.2977 23.6001 43.5977 23.6001C42.7977 23.6001 42.1977 23.8001 41.5977 24.2001C41.0977 24.6001 40.6976 25.1001 40.3976 25.7001C40.1976 26.1001 40.0977 26.6001 40.0977 27.1001H46.7977Z" fill="black"/>
<path d="M84.1 29C83 29 82 29.1 81.4 29.2C80.7 29.3 80.2 29.5 79.9 29.8C79.6 30.1 79.5 30.4 79.5 30.9C79.5 31.5 79.7 32 80.1 32.4C80.5 32.8 81.1 33 81.9 33C82.5 33 83 32.9 83.5 32.6C84 32.3 84.4 31.9 84.6 31.4C84.8 30.9 85 30.3 85 29.7V29H84.1Z" fill="black"/>
<path d="M161.601 23.4002C158.201 26.5002 158.201 31.6002 161.601 34.7002C165.001 37.8002 170.501 37.8002 173.901 34.7002C177.301 31.6002 177.301 26.5002 173.901 23.4002C170.501 20.3002 165.001 20.3002 161.601 23.4002ZM171.101 31.2002C171.101 31.8002 170.601 32.2002 170.001 32.2002C169.401 32.2002 168.901 31.8002 168.901 31.2002V29.4002L166.201 31.9002C165.801 32.3002 165.101 32.3002 164.701 31.9002C164.301 31.5002 164.301 30.9002 164.701 30.5002L167.401 28.0002H165.401C164.801 28.0002 164.301 27.6002 164.301 27.0002C164.301 26.4002 164.801 26.0002 165.401 26.0002H170.001C170.601 26.0002 171.101 26.4002 171.101 27.0002V31.2002Z" fill="black"/>
<path d="M193.099 0.100098H22.2992C10.3992 0.100098 0.699219 9.8001 0.699219 21.7001V30.5001C0.699219 42.4001 10.3992 52.1001 22.2992 52.1001H193.099C204.999 52.1001 214.699 42.4001 214.699 30.5001V21.7001C214.699 9.7001 204.999 0.100098 193.099 0.100098ZM41.0992 31.6001C41.7992 32.3001 42.8992 32.7001 44.2992 32.7001C44.7992 32.7001 45.2992 32.6001 45.8992 32.5001C46.4992 32.4001 47.0992 32.2001 47.5992 31.9001C47.9992 31.7001 48.2992 31.6001 48.5992 31.6001C48.8992 31.6001 49.0992 31.7001 49.2992 31.9001C49.4992 32.1001 49.5992 32.3001 49.5992 32.6001C49.5992 32.9001 49.5992 33.1001 49.3992 33.4001C49.2992 33.7001 48.9992 33.9001 48.6992 34.1001C48.0992 34.5001 47.2992 34.8001 46.4992 35.0001C45.6992 35.2001 44.8992 35.3001 44.1992 35.3001C42.6992 35.3001 41.3992 35.0001 40.1992 34.4001C39.0992 33.8001 38.1992 33.0001 37.5992 32.0001C36.9992 30.9001 36.6992 29.7001 36.6992 28.3001C36.6992 26.9001 36.9992 25.7001 37.5992 24.6001C38.1992 23.5001 38.9992 22.7001 39.9992 22.1001C40.9992 21.5001 42.1992 21.2001 43.4992 21.2001C44.4992 21.2001 45.2992 21.4001 46.0992 21.7001C46.8992 22.0001 47.4992 22.5001 48.0992 23.1001C48.6992 23.7001 49.0992 24.4001 49.2992 25.3001C49.5992 26.1001 49.6992 27.1001 49.6992 28.1001C49.6992 28.4001 49.5992 28.7001 49.2992 28.9001C49.0992 29.1001 48.7992 29.1001 48.2992 29.1001H39.8992C40.1992 30.2001 40.4992 31.0001 41.0992 31.6001ZM73.1992 33.5001C73.1992 34.1001 72.9992 34.5001 72.6992 34.8001C72.3992 35.1001 71.9992 35.2001 71.3992 35.2001C70.7992 35.2001 70.3992 35.1001 70.0992 34.8001C69.7992 34.5001 69.6992 34.0001 69.6992 33.5001V27.0001C69.6992 26.0001 69.4992 25.2001 69.1992 24.7001C68.8992 24.2001 68.2992 24.0001 67.4992 24.0001C66.5992 24.0001 65.8992 24.3001 65.3992 25.0001C64.8992 25.6001 64.5992 26.5001 64.5992 27.6001V33.5001C64.5992 34.1001 64.4992 34.5001 64.1992 34.8001C63.8992 35.1001 63.4992 35.2001 62.8992 35.2001C62.2992 35.2001 61.8992 35.1001 61.5992 34.8001C61.2992 34.5001 61.1992 34.0001 61.1992 33.5001V27.0001C61.1992 26.0001 60.9992 25.2001 60.6992 24.7001C60.3992 24.2001 59.7992 24.0001 58.9992 24.0001C58.0992 24.0001 57.3992 24.3001 56.8992 25.0001C56.3992 25.6001 56.0992 26.5001 56.0992 27.6001V33.5001C56.0992 34.7001 55.4992 35.3001 54.3992 35.3001C53.7992 35.3001 53.3992 35.2001 53.0992 34.9001C52.7992 34.6001 52.6992 34.1001 52.6992 33.6001V23.1001C52.6992 22.5001 52.7992 22.1001 53.0992 21.8001C53.3992 21.5001 53.7992 21.4001 54.2992 21.4001C54.7992 21.4001 55.1992 21.5001 55.4992 21.8001C55.7992 22.1001 55.8992 22.5001 55.8992 23.1001V23.7001C56.2992 23.1001 56.6992 22.6001 57.2992 22.1001C58.0992 21.6001 58.9992 21.3001 60.0992 21.3001C61.1992 21.3001 62.0992 21.6001 62.7992 22.1001C63.3992 22.5001 63.7992 23.2001 64.0992 24.0001C64.4992 23.3001 64.9992 22.6001 65.6992 22.2001C66.4992 21.6001 67.4992 21.3001 68.5992 21.3001C69.5992 21.3001 70.4992 21.5001 71.0992 21.9001C71.7992 22.3001 72.2992 22.9001 72.5992 23.8001C72.8992 24.6001 73.0992 25.6001 73.0992 26.9001V33.5001H73.1992ZM88.3992 33.5001C88.3992 34.1001 88.2992 34.5001 87.9992 34.8001C87.6992 35.1001 87.2992 35.2001 86.7992 35.2001C86.2992 35.2001 85.8992 35.1001 85.5992 34.8001C85.2992 34.5001 85.1992 34.0001 85.1992 33.5001V32.9001C85.0992 33.3001 84.8992 33.6001 84.5992 33.9001C84.1992 34.4001 83.7992 34.7001 83.1992 35.0001C82.5992 35.3001 81.9992 35.4001 81.1992 35.4001C80.1992 35.4001 79.2992 35.2001 78.5992 34.8001C77.7992 34.4001 77.1992 33.9001 76.7992 33.3001C76.3992 32.7001 76.1992 31.9001 76.1992 31.1001C76.1992 30.1001 76.4992 29.3001 76.9992 28.7001C77.4992 28.1001 78.3992 27.7001 79.4992 27.4001C80.6992 27.1001 82.1992 27.0001 84.1992 27.0001H85.1992V26.4001C85.1992 25.5001 84.9992 24.8001 84.5992 24.4001C84.1992 24.0001 83.4992 23.8001 82.5992 23.8001C82.0992 23.8001 81.4992 23.9001 80.8992 24.0001C80.2992 24.1001 79.5992 24.4001 78.9992 24.7001C78.5992 24.9001 78.2992 24.9001 78.0992 24.8001C77.7992 24.7001 77.5992 24.6001 77.4992 24.4001C77.3992 24.2001 77.2992 23.9001 77.2992 23.6001C77.2992 23.3001 77.3992 23.1001 77.4992 22.8001C77.5992 22.5001 77.8992 22.3001 78.1992 22.2001C78.9992 21.8001 79.8992 21.6001 80.5992 21.5001C81.3992 21.4001 82.0992 21.3001 82.7992 21.3001C84.0992 21.3001 85.1992 21.5001 86.0992 21.9001C86.9992 22.3001 87.5992 22.9001 87.9992 23.8001C88.3992 24.6001 88.5992 25.7001 88.5992 27.0001V33.5001H88.3992ZM95.2992 33.4001C95.2992 34.0001 95.1992 34.5001 94.8992 34.8001C94.5992 35.1001 94.1992 35.3001 93.5992 35.3001C92.9992 35.3001 92.5992 35.1001 92.2992 34.8001C91.9992 34.5001 91.8992 34.0001 91.8992 33.4001V23.3001C91.8992 22.7001 91.9992 22.2001 92.2992 21.9001C92.5992 21.6001 92.9992 21.4001 93.5992 21.4001C94.1992 21.4001 94.5992 21.6001 94.8992 21.9001C95.1992 22.2001 95.3992 22.7001 95.3992 23.3001V33.4001H95.2992ZM95.0992 18.3001C94.6992 18.6001 94.1992 18.8001 93.5992 18.8001C92.9992 18.8001 92.3992 18.6001 92.0992 18.3001C91.6992 18.0001 91.5992 17.5001 91.5992 16.9001C91.5992 16.3001 91.7992 15.9001 92.0992 15.5001C92.4992 15.2001 92.9992 15.0001 93.5992 15.0001C94.2992 15.0001 94.7992 15.2001 95.0992 15.5001C95.4992 15.8001 95.5992 16.3001 95.5992 16.9001C95.5992 17.5001 95.3992 18.0001 95.0992 18.3001ZM105.599 34.8001C105.399 35.1001 105.099 35.2001 104.699 35.3001C104.499 35.3001 104.299 35.3001 104.099 35.4001C103.899 35.4001 103.699 35.4001 103.499 35.4001C101.999 35.4001 100.799 35.0001 99.9992 34.1001C99.1992 33.2001 98.7992 31.9001 98.7992 30.2001V17.1001C98.7992 16.5001 98.8992 16.1001 99.1992 15.8001C99.4992 15.5001 99.8992 15.4001 100.499 15.4001C101.099 15.4001 101.499 15.5001 101.799 15.8001C102.099 16.1001 102.299 16.5001 102.299 17.1001V30.0001C102.299 30.8001 102.499 31.5001 102.799 31.9001C103.199 32.3001 103.699 32.5001 104.299 32.5001C104.399 32.5001 104.599 32.5001 104.699 32.5001C104.799 32.5001 104.999 32.5001 105.099 32.4001C105.399 32.4001 105.499 32.4001 105.599 32.6001C105.699 32.8001 105.699 33.1001 105.699 33.7001C105.899 34.2001 105.799 34.5001 105.599 34.8001ZM135.899 33.5001C135.899 34.1001 135.699 34.5001 135.399 34.8001C135.099 35.1001 134.699 35.2001 134.099 35.2001C133.499 35.2001 133.099 35.1001 132.799 34.8001C132.499 34.5001 132.399 34.0001 132.399 33.5001V27.0001C132.399 26.0001 132.199 25.2001 131.899 24.7001C131.599 24.2001 130.999 24.0001 130.199 24.0001C129.299 24.0001 128.599 24.3001 128.099 25.0001C127.599 25.6001 127.299 26.5001 127.299 27.6001V33.5001C127.299 34.1001 127.199 34.5001 126.899 34.8001C126.599 35.1001 126.199 35.2001 125.599 35.2001C124.999 35.2001 124.599 35.1001 124.299 34.8001C123.999 34.5001 123.899 34.0001 123.899 33.5001V27.0001C123.899 26.0001 123.699 25.2001 123.399 24.7001C123.099 24.2001 122.499 24.0001 121.699 24.0001C120.799 24.0001 120.099 24.3001 119.599 25.0001C119.099 25.6001 118.799 26.5001 118.799 27.6001V33.5001C118.799 34.7001 118.199 35.3001 117.099 35.3001C116.499 35.3001 116.099 35.2001 115.799 34.9001C115.499 34.6001 115.399 34.1001 115.399 33.6001V23.1001C115.399 22.5001 115.499 22.1001 115.799 21.8001C116.099 21.5001 116.499 21.4001 116.999 21.4001C117.499 21.4001 117.899 21.5001 118.199 21.8001C118.499 22.1001 118.599 22.5001 118.599 23.1001V23.7001C118.999 23.1001 119.399 22.6001 119.999 22.1001C120.799 21.6001 121.699 21.3001 122.799 21.3001C123.899 21.3001 124.799 21.6001 125.499 22.1001C126.099 22.5001 126.499 23.2001 126.799 24.0001C127.199 23.3001 127.699 22.6001 128.399 22.2001C129.199 21.6001 130.199 21.3001 131.299 21.3001C132.299 21.3001 133.199 21.5001 133.799 21.9001C134.499 22.3001 134.999 22.9001 135.299 23.8001C135.599 24.6001 135.799 25.6001 135.799 26.9001V33.5001H135.899ZM143.099 31.6001C143.799 32.3001 144.899 32.7001 146.299 32.7001C146.799 32.7001 147.299 32.6001 147.899 32.5001C148.499 32.4001 149.099 32.2001 149.599 31.9001C149.999 31.7001 150.299 31.6001 150.599 31.6001C150.899 31.6001 151.099 31.7001 151.299 31.9001C151.499 32.1001 151.599 32.3001 151.599 32.6001C151.599 32.9001 151.599 33.1001 151.399 33.4001C151.299 33.7001 150.999 33.9001 150.699 34.1001C150.099 34.5001 149.299 34.8001 148.499 35.0001C147.699 35.2001 146.899 35.3001 146.199 35.3001C144.699 35.3001 143.399 35.0001 142.199 34.4001C141.099 33.8001 140.199 33.0001 139.599 32.0001C138.999 30.9001 138.699 29.7001 138.699 28.3001C138.699 26.9001 138.999 25.7001 139.599 24.6001C140.199 23.5001 140.999 22.7001 141.999 22.1001C142.999 21.5001 144.199 21.2001 145.499 21.2001C146.499 21.2001 147.299 21.4001 148.099 21.7001C148.899 22.0001 149.499 22.5001 150.099 23.1001C150.699 23.7001 151.099 24.4001 151.299 25.3001C151.599 26.1001 151.699 27.1001 151.699 28.1001C151.699 28.4001 151.599 28.7001 151.299 28.9001C151.099 29.1001 150.799 29.1001 150.299 29.1001H141.899C142.199 30.2001 142.499 31.0001 143.099 31.6001ZM175.399 36.1001C171.199 40.0001 164.299 40.0001 160.099 36.1001C155.899 32.2001 155.899 25.9001 160.099 22.0001C164.299 18.1001 171.199 18.1001 175.399 22.0001C179.599 25.9001 179.599 32.2001 175.399 36.1001Z" fill="black"/>
</svg>
