<svg width="183" height="183" viewBox="0 0 183 183" fill="none" xmlns="http://www.w3.org/2000/svg">
<g clip-path="url(#clip0_264_251)">
<path d="M155.531 158.342C144.79 169.325 131.508 177.376 116.909 181.753C116.493 181.304 116.168 180.775 115.953 180.197C115.739 179.619 115.639 179.004 115.66 178.387V153.822C115.66 145.424 112.718 139.869 109.624 137.168C129.203 134.921 149.973 127.26 149.973 92.7509C150.153 83.7973 146.888 75.1262 140.878 68.5915C141.766 66.2122 144.848 57.041 139.991 44.7292C139.991 44.7292 132.624 42.3501 115.695 53.8887C101.227 49.8917 85.9745 49.8917 71.5055 53.8887C54.5767 42.3382 47.2098 44.7292 47.2098 44.7292C42.353 57.041 45.4469 66.1409 46.3225 68.5915C40.3629 75.1567 37.0961 83.7973 37.1926 92.7393C37.1926 127.236 57.8107 134.908 77.5534 137.157C74.9028 139.405 72.6844 143.461 71.809 149.159C66.8004 151.538 53.9813 155.464 46.1241 141.808C46.1241 141.808 41.4541 133.101 32.5694 132.505C32.5694 132.505 23.8832 132.351 31.9856 137.906C31.9856 137.906 37.7297 140.761 41.6992 151.11C41.6992 151.11 46.8596 167.169 71.4472 161.816V178.469C71.5055 179.382 71.2748 180.289 70.7891 181.058C70.304 181.826 69.5888 182.416 68.7504 182.74C49.2619 177.721 31.9509 166.274 19.516 150.182C7.08103 134.091 0.22099 114.26 0.00524852 93.7803C-0.210493 73.3007 6.23024 53.324 18.3233 36.9643C30.4164 20.6045 47.4822 8.78121 66.8605 3.33755C86.2386 -2.10613 106.84 -0.864255 125.452 6.86956C144.065 14.6034 159.644 28.3946 169.759 46.0931C179.875 63.7915 183.959 84.4027 181.374 104.714C178.79 125.024 169.683 143.893 155.472 158.378L155.531 158.342Z" fill="black"/>
</g>
<defs>
<clipPath id="clip0_264_251">
<rect width="182.13" height="182.74" fill="white"/>
</clipPath>
</defs>
</svg>
