<svg width="183" height="183" viewBox="0 0 183 183" fill="none" xmlns="http://www.w3.org/2000/svg">
<path fill-rule="evenodd" clip-rule="evenodd" d="M154.129 154.646C118.87 190.023 61.7038 190.023 26.4444 154.646C-8.8148 119.268 -8.8148 61.9105 26.4444 26.533C61.7038 -8.84433 118.87 -8.84433 154.129 26.533C189.389 61.9105 189.389 119.268 154.129 154.646ZM126.684 100.628C126.684 86.4427 119.471 79.8421 109.849 79.8421C102.081 79.8421 98.6118 84.3308 96.6685 87.4734V87.6226H96.5726C96.6005 87.5751 96.6394 87.5221 96.6685 87.4734V80.927H82.0447C82.2414 85.2628 82.0447 127.108 82.0447 127.108H96.6703V101.318C96.6703 99.9362 96.7693 98.562 97.1554 97.5752C98.213 94.8134 100.617 91.959 104.657 91.959C109.949 91.959 112.064 96.1949 112.064 102.401V127.108H126.684V100.628ZM66.7458 58.6656C61.7421 58.6656 58.4697 62.1115 58.4697 66.6428C58.4697 71.0761 61.648 74.6261 66.5515 74.6261H66.6492C71.7495 74.6261 74.9216 71.0767 74.9216 66.6428C74.8257 62.1115 71.7495 58.6656 66.7458 58.6656ZM59.3384 127.108H73.9581V80.927H59.3384V127.108Z" fill="black"/>
</svg>
