<svg width="28" height="28" viewBox="0 0 28 28" fill="none" xmlns="http://www.w3.org/2000/svg">
<path d="M23.9107 24.2617C22.2594 25.9445 20.2175 27.1781 17.9732 27.8487C17.9092 27.7799 17.8592 27.6989 17.8262 27.6104C17.7933 27.5218 17.778 27.4275 17.7812 27.3329V23.5691C17.7812 22.2823 17.3289 21.4311 16.8532 21.0174C19.8632 20.6729 23.0563 19.4991 23.0563 14.2116C23.0839 12.8396 22.5821 11.5111 21.6581 10.5098C21.7945 10.1453 22.2684 8.74 21.5217 6.85355C21.5217 6.85355 20.3891 6.48902 17.7866 8.25699C15.5622 7.64456 13.2174 7.64456 10.993 8.25699C8.39043 6.48719 7.25786 6.85355 7.25786 6.85355C6.5112 8.74 6.98684 10.1343 7.12145 10.5098C6.20525 11.5157 5.70302 12.8396 5.71786 14.2098C5.71786 19.4955 8.88761 20.6711 11.9227 21.0156C11.5153 21.3601 11.1743 21.9816 11.0397 22.8546C10.2697 23.2192 8.29889 23.8206 7.09094 21.7282C7.09094 21.7282 6.37299 20.3941 5.0071 20.3029C5.0071 20.3029 3.67171 20.2792 4.91735 21.1304C4.91735 21.1304 5.80043 21.5678 6.41068 23.1536C6.41068 23.1536 7.20402 25.6141 10.984 24.7939V27.3457C10.993 27.4854 10.9575 27.6244 10.8829 27.7422C10.8083 27.86 10.6984 27.9504 10.5694 28C7.57334 27.231 4.91202 25.477 3.00032 23.0114C1.08862 20.5459 0.0339742 17.5072 0.000806893 14.3693C-0.0323604 11.2314 0.95781 8.17047 2.81695 5.66378C4.6761 3.15709 7.29974 1.34549 10.2789 0.511389C13.258 -0.322708 16.4251 -0.132424 19.2866 1.05258C22.1481 2.23758 24.5431 4.3507 26.0982 7.06252C27.6533 9.77434 28.2811 12.9325 27.8838 16.0445C27.4865 19.1566 26.0864 22.0477 23.9017 24.2672L23.9107 24.2617Z" fill="white"/>
</svg>