<svg width="30" height="30" viewBox="0 0 30 30" fill="none" xmlns="http://www.w3.org/2000/svg">
<path fill-rule="evenodd" clip-rule="evenodd" d="M25.6437 25.3878C19.8359 31.1957 10.4195 31.1957 4.61172 25.3878C-1.1961 19.58 -1.1961 10.1637 4.61172 4.35586C10.4195 -1.45195 19.8359 -1.45195 25.6437 4.35586C31.4515 10.1637 31.4515 19.58 25.6437 25.3878ZM21.123 16.5199C21.123 14.1911 19.9348 13.1075 18.3498 13.1075C17.0705 13.1075 16.4989 13.8444 16.1789 14.3603V14.3848H16.1631C16.1677 14.377 16.174 14.3683 16.1789 14.3603V13.2856H13.7701C13.8025 13.9974 13.7701 20.8671 13.7701 20.8671H16.1791V16.6332C16.1791 16.4063 16.1955 16.1807 16.259 16.0187C16.4332 15.5653 16.8292 15.0967 17.4947 15.0967C18.3664 15.0967 18.7147 15.7921 18.7147 16.811V20.8671H21.123V16.5199ZM11.25 9.63099C10.4259 9.63099 9.88685 10.1967 9.88685 10.9406C9.88685 11.6684 10.4103 12.2512 11.2181 12.2512H11.2342C12.0743 12.2512 12.5967 11.6685 12.5967 10.9406C12.5809 10.1967 12.0743 9.63099 11.25 9.63099ZM10.0299 20.8671H12.4381V13.2856H10.0299V20.8671Z" fill="white"/>
</svg>