<svg width="1440" height="3185" viewBox="0 0 1440 3185" fill="none" xmlns="http://www.w3.org/2000/svg">
<path fill-rule="evenodd" clip-rule="evenodd" d="M1371.73 867.226C1422.36 868.145 1468.6 828.357 1518.57 836.538C1571.42 845.19 1642.41 862.425 1657.04 913.935C1674.52 975.427 1618.83 1033.87 1591 1091.42C1575.46 1123.55 1523.93 1142.26 1529.6 1177.5C1540.35 1244.28 1638.22 1282.03 1632.5 1349.43C1628.35 1398.36 1557.61 1427.7 1508.55 1425.58C1453.79 1423.21 1422.97 1357.62 1371.73 1338.15C1341.91 1326.82 1304.32 1354.53 1277.24 1337.68C1249.61 1320.49 1261.29 1268.36 1233.2 1251.94C1182.04 1222.06 1078.24 1269.15 1062.28 1212.1C1046.79 1156.7 1176.86 1155.97 1190.74 1100.16C1204.21 1046.03 1121.66 1002.63 1128.16 947.227C1134.04 897.124 1174.37 846.899 1222.29 831.157C1271.59 814.964 1319.85 866.284 1371.73 867.226Z" fill="#F9F9F6"/>
<path fill-rule="evenodd" clip-rule="evenodd" d="M554.451 1750.09C598.203 1735.07 628.94 1804.54 656.132 1841.96C677.334 1871.15 673.776 1911.97 693.848 1941.94C711.747 1968.67 761.009 1973.1 765.305 2004.98C769.768 2038.09 704.945 2057.22 713.728 2089.46C734.138 2164.37 840.915 2203.66 840.593 2281.3C840.366 2336.16 765.395 2366.72 712.52 2381.34C660.643 2395.69 601.059 2387.34 554.451 2360.42C510.275 2334.91 513.973 2253.37 465.18 2238.48C402.874 2219.46 321.208 2322.03 275.757 2275.36C233.039 2231.5 319.401 2163.02 333.707 2103.49C341.547 2070.87 338.239 2037.81 340.884 2004.36C343.925 1965.91 319.37 1913.21 350.551 1890.5C386.452 1864.36 445.044 1927.06 481.621 1901.88C528.426 1869.64 500.701 1768.55 554.451 1750.09Z" fill="#ECF4FA"/>
<path fill-rule="evenodd" clip-rule="evenodd" d="M320.577 15.4761C390.824 -3.27395 498.397 -17.1351 527.628 49.4365C559.736 122.561 453.113 181.224 426.402 256.487C414.945 288.767 430.513 322.753 419.157 355.068C393.276 428.711 392.801 528.005 320.577 557.614C242.178 589.754 147.653 549.109 85.0105 492.053C19.934 432.782 -37.3023 340.182 -10.0395 256.487C15.9842 176.596 132.872 186.176 200.769 136.68C248.491 101.892 263.519 30.7058 320.577 15.4761Z" fill="#ECF4FA"/>
<path fill-rule="evenodd" clip-rule="evenodd" d="M1272.17 1.3149C1329.9 -3.8283 1385.34 5.95082 1436.29 33.5791C1514.63 76.0633 1628.66 108.751 1634.31 197.693C1639.94 286.287 1522.55 322.553 1458.56 384.073C1396.91 443.335 1357.06 556.116 1272.17 545.812C1186.41 535.401 1187.15 404.902 1126.15 343.723C1065.33 282.739 922.373 283.775 925.037 197.693C927.724 110.835 1059.28 103.217 1134.91 60.4295C1179.99 34.93 1220.59 5.91063 1272.17 1.3149Z" fill="#F9F9F6"/>
<path fill-rule="evenodd" clip-rule="evenodd" d="M-79.5156 483.288C-2.7309 470.239 81.1817 486.405 138.084 539.587C196.39 594.082 223.392 677.989 213.541 757.186C204.569 829.311 149.434 884.894 89.94 926.642C40.7897 961.132 -20.0216 954.721 -79.5156 962.829C-156.29 973.293 -235.892 1019.79 -302.451 980.121C-378.11 935.027 -440.288 843.846 -424.543 757.186C-409.347 673.548 -300.475 655.659 -233.896 602.806C-180.908 560.742 -146.213 494.624 -79.5156 483.288Z" fill="#F9F9F6"/>
<path fill-rule="evenodd" clip-rule="evenodd" d="M1128.83 533.433C1183.56 538.399 1210.57 597.23 1252.83 632.391C1303.5 674.547 1383.75 691.906 1396.96 756.518C1411.15 825.931 1374.17 903.241 1316.63 944.507C1263.71 982.457 1193.69 954.261 1128.83 948.822C1072.8 944.124 1015.85 948.09 970.053 915.446C915.373 876.467 856.868 823.677 859.06 756.518C861.229 690.041 928.869 650.005 980.096 607.643C1024.49 570.93 1071.47 528.229 1128.83 533.433Z" fill="#ECF4FA"/>
<path fill-rule="evenodd" clip-rule="evenodd" d="M312.577 1066.48C382.824 1047.73 490.397 1033.86 519.628 1100.44C551.736 1173.56 445.113 1232.22 418.402 1307.49C406.945 1339.77 422.513 1373.75 411.157 1406.07C385.276 1479.71 384.801 1579 312.577 1608.61C234.178 1640.75 139.653 1600.11 77.0105 1543.05C11.934 1483.78 -45.3023 1391.18 -18.0395 1307.49C7.9842 1227.6 124.872 1237.18 192.769 1187.68C240.491 1152.89 255.519 1081.71 312.577 1066.48Z" fill="#ECF4FA"/>
<path fill-rule="evenodd" clip-rule="evenodd" d="M-166.516 1531.29C-89.7309 1518.24 -5.81833 1534.4 51.0837 1587.59C109.39 1642.08 136.392 1725.99 126.541 1805.19C117.569 1877.31 62.4343 1932.89 2.94 1974.64C-46.2103 2009.13 -107.022 2002.72 -166.516 2010.83C-243.29 2021.29 -322.892 2067.79 -389.451 2028.12C-465.11 1983.03 -527.288 1891.85 -511.543 1805.19C-496.347 1721.55 -387.475 1703.66 -320.896 1650.81C-267.908 1608.74 -233.213 1542.62 -166.516 1531.29Z" fill="#F9F9F6"/>
<path fill-rule="evenodd" clip-rule="evenodd" d="M1089.83 1478.43C1144.56 1483.4 1171.57 1542.23 1213.83 1577.39C1264.5 1619.55 1344.75 1636.91 1357.96 1701.52C1372.15 1770.93 1335.17 1848.24 1277.63 1889.51C1224.71 1927.46 1154.69 1899.26 1089.83 1893.82C1033.8 1889.12 976.846 1893.09 931.053 1860.45C876.373 1821.47 817.868 1768.68 820.06 1701.52C822.229 1635.04 889.869 1595.01 941.096 1552.64C985.491 1515.93 1032.47 1473.23 1089.83 1478.43Z" fill="#ECF4FA"/>
<path fill-rule="evenodd" clip-rule="evenodd" d="M342.329 2438.12C441.397 2421.28 549.662 2442.14 623.078 2510.76C698.306 2581.07 733.144 2689.33 720.434 2791.51C708.859 2884.56 637.723 2956.28 560.963 3010.14C497.548 3054.64 419.089 3046.37 342.329 3056.83C243.274 3070.33 140.57 3130.32 54.6952 3079.14C-42.921 3020.96 -123.144 2903.32 -102.83 2791.51C-83.2235 2683.6 57.2444 2660.52 143.145 2592.32C211.511 2538.05 256.275 2452.75 342.329 2438.12Z" fill="#F9F9F6"/>
<path fill-rule="evenodd" clip-rule="evenodd" d="M1330.34 2790.76C1365.21 2809.03 1384.79 2845.71 1414.87 2871.11C1437.53 2890.23 1464.08 2902.61 1486.21 2922.35C1511.4 2944.82 1531.43 2970.75 1554.36 2995.52C1594.77 3039.17 1704.07 3073.83 1673.83 3125.05C1637.2 3187.08 1527.41 3121.33 1462.11 3151.74C1432.33 3165.61 1442.64 3214.22 1424.09 3241.33C1397.54 3280.14 1377.32 3346.18 1330.34 3344.35C1282.28 3342.47 1278.45 3263.09 1240.04 3234.16C1211.1 3212.36 1164.97 3224.34 1138.37 3199.74C1111.52 3174.9 1113.17 3132.22 1095.32 3100.29C1070.44 3055.76 1000.81 3023.76 1012.26 2974.05C1023.73 2924.29 1110.42 2936.59 1142.25 2896.66C1174.09 2856.71 1144.23 2777.7 1188.74 2752.63C1231.87 2728.34 1286.49 2767.78 1330.34 2790.76Z" fill="#ECF4FA"/>
</svg>
