<svg width="1440" height="3597" viewBox="0 0 1440 3597" fill="none" xmlns="http://www.w3.org/2000/svg">
<path fill-rule="evenodd" clip-rule="evenodd" d="M133.846 636.971C44.2412 636.688 -55.2906 683.943 -124.55 627.09C-196.145 568.321 -198.872 461.132 -192.978 368.694C-187.506 282.862 -150.657 205.604 -93.5758 141.271C-32.0451 71.9245 41.3477 -5.8905 133.846 0.353375C224.173 6.45066 271.199 103.418 332.507 170.033C389.584 232.05 461.665 285.154 472.843 368.694C485.332 462.032 467.726 570.29 393.882 628.729C323.188 684.675 223.999 637.256 133.846 636.971Z" fill="#5B63B7"/>
<path fill-rule="evenodd" clip-rule="evenodd" d="M1377.57 1092.46C1273.34 1107.3 1151.26 1137.93 1074.95 1065.39C998.13 992.375 1028.61 868.725 1030.71 762.766C1032.75 660.154 1019.87 549.797 1086.74 471.933C1157.18 389.897 1272.26 334.316 1377.57 358.84C1474.48 381.408 1495.82 504.545 1558.54 581.799C1609.45 644.514 1696.4 682.499 1705.49 762.766C1715.18 848.337 1665.49 928.9 1604.76 989.958C1543.85 1051.19 1463.08 1080.28 1377.57 1092.46Z" fill="#9296F0"/>
<path fill-rule="evenodd" clip-rule="evenodd" d="M646.08 2220.98C610.576 2221.58 572.189 2207.43 555.262 2176.21C540.076 2148.21 561.4 2116.68 573.553 2087.23C582.263 2066.13 592.134 2044.28 613.27 2035.66C633.21 2027.52 656.232 2033.8 673.749 2046.33C688.189 2056.66 685.883 2076.9 693.409 2092.98C706.719 2121.42 744.025 2143.76 733.136 2173.21C721.059 2205.87 680.9 2220.39 646.08 2220.98Z" fill="#5B63B7"/>
<path fill-rule="evenodd" clip-rule="evenodd" d="M1210.15 2079.13C1138.88 2058.12 1135.48 1963.58 1095.78 1900.77C1065.65 1853.11 1009.75 1820.5 1011.03 1764.12C1012.6 1694.1 1047.65 1629.87 1102.86 1586.77C1180.39 1526.23 1271.81 1456.71 1365.21 1487.57C1466.63 1521.08 1526.61 1627.9 1545.5 1733.02C1563.37 1832.48 1529.01 1935.21 1458.7 2007.78C1395.59 2072.91 1297.13 2104.78 1210.15 2079.13Z" fill="#5B63B7"/>
<path fill-rule="evenodd" clip-rule="evenodd" d="M1437.3 3558.89C1377.28 3567.35 1322.06 3518.7 1291.22 3466.53C1264.6 3421.51 1268.38 3362.72 1294.55 3317.45C1314.71 3282.59 1363.05 3287.63 1401.52 3275.74C1428.58 3267.37 1454.11 3250.16 1480.7 3259.9C1510.11 3270.69 1529.99 3296.93 1540.15 3326.56C1552.08 3361.39 1554.41 3397.87 1539.5 3431.54C1516.32 3483.9 1494.01 3550.9 1437.3 3558.89Z" fill="#5B63B7"/>
<path fill-rule="evenodd" clip-rule="evenodd" d="M75.8689 2007.54C117.27 2031.05 116.29 2089.44 149.528 2123.53C199.838 2175.12 304.061 2179.9 313.582 2251.33C323.191 2323.42 254.453 2388.41 189.084 2420.28C129.704 2449.23 63.2531 2420.36 -0.915627 2404.66C-60.1747 2390.16 -124.652 2382.31 -162.305 2334.31C-202.024 2283.67 -207.875 2215.96 -198.919 2152.24C-189.4 2084.51 -172.34 2006.98 -111.822 1975.12C-53.421 1944.36 18.4744 1974.95 75.8689 2007.54Z" fill="#9296F0"/>
<path fill-rule="evenodd" clip-rule="evenodd" d="M9.91314 3665.3C-48.5704 3666.82 -113.655 3686.99 -158.125 3648.98C-204.132 3609.65 -201.713 3541.33 -205.77 3480.94C-210.269 3413.98 -222.239 3342.65 -182.329 3288.7C-137.737 3228.41 -64.4435 3179.69 9.91318 3189.37C80.7679 3198.58 111.494 3278.62 157.894 3332.96C198.212 3380.17 256.568 3418.9 258.901 3480.94C261.283 3544.28 220.398 3602.77 169.46 3640.49C124.494 3673.78 65.8458 3663.86 9.91314 3665.3Z" fill="#9296F0"/>
<path fill-rule="evenodd" clip-rule="evenodd" d="M370.471 779.661C431.933 788.49 421.505 889.814 469.873 928.75C532.414 979.094 676.076 947.925 679.158 1028.15C682.193 1107.16 541.04 1088.02 477.816 1135.5C432.273 1169.7 424.252 1241.21 370.471 1259.96C297.684 1285.34 201.504 1306.11 148.227 1250.4C94.9996 1194.74 129.956 1102.83 148.782 1028.15C162.317 974.461 200.858 936.718 237.719 895.4C278.348 849.859 310.062 770.982 370.471 779.661Z" fill="#5B63B7"/>
<path fill-rule="evenodd" clip-rule="evenodd" d="M1004.47 2678.66C1065.93 2687.49 1055.51 2788.81 1103.87 2827.75C1166.41 2878.09 1310.08 2846.93 1313.16 2927.15C1316.19 3006.16 1175.04 2987.02 1111.82 3034.5C1066.27 3068.7 1058.25 3140.21 1004.47 3158.96C931.684 3184.34 835.504 3205.11 782.227 3149.4C729 3093.74 763.956 3001.83 782.782 2927.15C796.317 2873.46 834.858 2835.72 871.719 2794.4C912.348 2748.86 944.062 2669.98 1004.47 2678.66Z" fill="#9296F0"/>
</svg>
