<svg width="1440" height="3100" viewBox="0 0 1440 3100" fill="none" xmlns="http://www.w3.org/2000/svg">
<path fill-rule="evenodd" clip-rule="evenodd" d="M320.577 15.4761C390.824 -3.27395 498.397 -17.1351 527.628 49.4365C559.736 122.561 453.113 181.224 426.402 256.487C414.945 288.767 430.513 322.753 419.157 355.068C393.276 428.711 392.801 528.005 320.577 557.614C242.178 589.754 147.653 549.109 85.0105 492.053C19.934 432.782 -37.3023 340.182 -10.0395 256.487C15.9842 176.596 132.872 186.176 200.769 136.68C248.491 101.892 263.519 30.7058 320.577 15.4761Z" fill="#ECF4FA"/>
<path fill-rule="evenodd" clip-rule="evenodd" d="M1272.17 1.3149C1329.9 -3.8283 1385.34 5.95082 1436.29 33.5791C1514.63 76.0633 1628.66 108.751 1634.31 197.693C1639.94 286.287 1522.55 322.553 1458.56 384.073C1396.91 443.335 1357.06 556.116 1272.17 545.812C1186.41 535.401 1187.15 404.902 1126.15 343.723C1065.33 282.739 922.373 283.775 925.037 197.693C927.724 110.835 1059.28 103.217 1134.91 60.4295C1179.99 34.93 1220.59 5.91063 1272.17 1.3149Z" fill="#F9F9F6"/>
<path fill-rule="evenodd" clip-rule="evenodd" d="M-166.516 547.288C-89.7309 534.239 -5.81833 550.405 51.0837 603.587C109.39 658.082 136.392 741.989 126.541 821.186C117.569 893.311 62.4343 948.894 2.94 990.642C-46.2103 1025.13 -107.022 1018.72 -166.516 1026.83C-243.29 1037.29 -322.892 1083.79 -389.451 1044.12C-465.11 999.027 -527.288 907.846 -511.543 821.186C-496.347 737.548 -387.475 719.659 -320.896 666.806C-267.908 624.742 -233.213 558.624 -166.516 547.288Z" fill="#F9F9F6"/>
<path fill-rule="evenodd" clip-rule="evenodd" d="M1089.83 494.433C1144.56 499.399 1171.57 558.23 1213.83 593.391C1264.5 635.547 1344.75 652.906 1357.96 717.518C1372.15 786.931 1335.17 864.241 1277.63 905.507C1224.71 943.457 1154.69 915.261 1089.83 909.822C1033.8 905.124 976.846 909.09 931.053 876.446C876.373 837.467 817.868 784.677 820.06 717.518C822.229 651.041 889.869 611.005 941.096 568.643C985.491 531.93 1032.47 489.229 1089.83 494.433Z" fill="#ECF4FA"/>
<path fill-rule="evenodd" clip-rule="evenodd" d="M320.577 999.476C390.824 980.726 498.397 966.865 527.628 1033.44C559.736 1106.56 453.113 1165.22 426.402 1240.49C414.945 1272.77 430.513 1306.75 419.157 1339.07C393.276 1412.71 392.801 1512 320.577 1541.61C242.178 1573.75 147.653 1533.11 85.0105 1476.05C19.934 1416.78 -37.3023 1324.18 -10.0395 1240.49C15.9842 1160.6 132.872 1170.18 200.769 1120.68C248.491 1085.89 263.519 1014.71 320.577 999.476Z" fill="#ECF4FA"/>
<path fill-rule="evenodd" clip-rule="evenodd" d="M1272.17 985.315C1329.9 980.172 1385.34 989.951 1436.29 1017.58C1514.63 1060.06 1628.66 1092.75 1634.31 1181.69C1639.94 1270.29 1522.55 1306.55 1458.56 1368.07C1396.91 1427.33 1357.06 1540.12 1272.17 1529.81C1186.41 1519.4 1187.15 1388.9 1126.15 1327.72C1065.33 1266.74 922.373 1267.77 925.037 1181.69C927.724 1094.84 1059.28 1087.22 1134.91 1044.43C1179.99 1018.93 1220.59 989.911 1272.17 985.315Z" fill="#F9F9F6"/>
<path fill-rule="evenodd" clip-rule="evenodd" d="M-166.516 1531.29C-89.7309 1518.24 -5.81833 1534.4 51.0837 1587.59C109.39 1642.08 136.392 1725.99 126.541 1805.19C117.569 1877.31 62.4343 1932.89 2.94 1974.64C-46.2103 2009.13 -107.022 2002.72 -166.516 2010.83C-243.29 2021.29 -322.892 2067.79 -389.451 2028.12C-465.11 1983.03 -527.288 1891.85 -511.543 1805.19C-496.347 1721.55 -387.475 1703.66 -320.896 1650.81C-267.908 1608.74 -233.213 1542.62 -166.516 1531.29Z" fill="#F9F9F6"/>
<path fill-rule="evenodd" clip-rule="evenodd" d="M1089.83 1478.43C1144.56 1483.4 1171.57 1542.23 1213.83 1577.39C1264.5 1619.55 1344.75 1636.91 1357.96 1701.52C1372.15 1770.93 1335.17 1848.24 1277.63 1889.51C1224.71 1927.46 1154.69 1899.26 1089.83 1893.82C1033.8 1889.12 976.846 1893.09 931.053 1860.45C876.373 1821.47 817.868 1768.68 820.06 1701.52C822.229 1635.04 889.869 1595.01 941.096 1552.64C985.491 1515.93 1032.47 1473.23 1089.83 1478.43Z" fill="#ECF4FA"/>
<path fill-rule="evenodd" clip-rule="evenodd" d="M970.78 1751.97C1061.41 1727.78 1200.21 1709.89 1237.92 1795.78C1279.35 1890.13 1141.78 1965.82 1107.32 2062.92C1092.54 2104.57 1112.62 2148.42 1097.97 2190.11C1064.58 2285.13 1063.97 2413.24 970.78 2451.44C869.629 2492.91 747.672 2440.47 666.85 2366.85C582.887 2290.38 509.04 2170.91 544.215 2062.92C577.791 1959.85 728.601 1972.21 816.203 1908.35C877.774 1863.46 897.163 1771.62 970.78 1751.97Z" fill="#ECF4FA"/>
<path fill-rule="evenodd" clip-rule="evenodd" d="M342.329 2438.12C441.397 2421.28 549.662 2442.14 623.078 2510.76C698.306 2581.07 733.144 2689.33 720.434 2791.51C708.859 2884.56 637.723 2956.28 560.963 3010.14C497.548 3054.64 419.089 3046.37 342.329 3056.83C243.274 3070.33 140.57 3130.32 54.6952 3079.14C-42.921 3020.96 -123.144 2903.32 -102.83 2791.51C-83.2235 2683.6 57.2444 2660.52 143.145 2592.32C211.511 2538.05 256.275 2452.75 342.329 2438.12Z" fill="#F9F9F6"/>
</svg>