<svg width="1440" height="3198" viewBox="0 0 1440 3198" fill="none" xmlns="http://www.w3.org/2000/svg">
<g filter="url(#filter0_f_0_1)">
<path fill-rule="evenodd" clip-rule="evenodd" d="M320.577 64.4761C390.824 45.726 498.397 31.8649 527.628 98.4365C559.736 171.561 453.113 230.224 426.402 305.487C414.945 337.767 430.513 371.753 419.157 404.068C393.276 477.711 392.801 577.005 320.577 606.614C242.178 638.754 147.653 598.109 85.0105 541.053C19.934 481.782 -37.3023 389.182 -10.0395 305.487C15.9842 225.596 132.872 235.176 200.769 185.68C248.491 150.892 263.519 79.7058 320.577 64.4761Z" fill="black"/>
</g>
<g filter="url(#filter1_f_0_1)">
<path fill-rule="evenodd" clip-rule="evenodd" d="M1272.17 50.3149C1329.9 45.1717 1385.34 54.9508 1436.29 82.5791C1514.63 125.063 1628.66 157.751 1634.31 246.693C1639.94 335.287 1522.55 371.553 1458.56 433.073C1396.91 492.335 1357.06 605.116 1272.17 594.812C1186.41 584.401 1187.15 453.902 1126.15 392.723C1065.33 331.739 922.373 332.775 925.037 246.693C927.724 159.835 1059.28 152.217 1134.91 109.43C1179.99 83.93 1220.59 54.9106 1272.17 50.3149Z" fill="#FF9F7D"/>
</g>
<g filter="url(#filter2_f_0_1)">
<path fill-rule="evenodd" clip-rule="evenodd" d="M-166.516 596.288C-89.7309 583.239 -5.81833 599.405 51.0837 652.587C109.39 707.082 136.392 790.989 126.541 870.186C117.569 942.311 62.4343 997.894 2.94 1039.64C-46.2103 1074.13 -107.022 1067.72 -166.516 1075.83C-243.29 1086.29 -322.892 1132.79 -389.451 1093.12C-465.11 1048.03 -527.288 956.846 -511.543 870.186C-496.347 786.548 -387.475 768.659 -320.896 715.806C-267.908 673.742 -233.213 607.624 -166.516 596.288Z" fill="#FF9F7D"/>
</g>
<g filter="url(#filter3_f_0_1)">
<path fill-rule="evenodd" clip-rule="evenodd" d="M1089.83 543.433C1144.56 548.399 1171.57 607.23 1213.83 642.391C1264.5 684.547 1344.75 701.906 1357.96 766.518C1372.15 835.931 1335.17 913.241 1277.63 954.507C1224.71 992.457 1154.69 964.261 1089.83 958.822C1033.8 954.124 976.846 958.09 931.053 925.446C876.373 886.467 817.868 833.677 820.06 766.518C822.229 700.041 889.869 660.005 941.096 617.643C985.491 580.93 1032.47 538.229 1089.83 543.433Z" fill="black"/>
</g>
<g filter="url(#filter4_f_0_1)">
<path fill-rule="evenodd" clip-rule="evenodd" d="M320.577 1048.48C390.824 1029.73 498.397 1015.86 527.628 1082.44C559.736 1155.56 453.113 1214.22 426.402 1289.49C414.945 1321.77 430.513 1355.75 419.157 1388.07C393.276 1461.71 392.801 1561 320.577 1590.61C242.178 1622.75 147.653 1582.11 85.0105 1525.05C19.934 1465.78 -37.3023 1373.18 -10.0395 1289.49C15.9842 1209.6 132.872 1219.18 200.769 1169.68C248.491 1134.89 263.519 1063.71 320.577 1048.48Z" fill="black"/>
</g>
<g filter="url(#filter5_f_0_1)">
<path fill-rule="evenodd" clip-rule="evenodd" d="M1272.17 1034.31C1329.9 1029.17 1385.34 1038.95 1436.29 1066.58C1514.63 1109.06 1628.66 1141.75 1634.31 1230.69C1639.94 1319.29 1522.55 1355.55 1458.56 1417.07C1396.91 1476.33 1357.06 1589.12 1272.17 1578.81C1186.41 1568.4 1187.15 1437.9 1126.15 1376.72C1065.33 1315.74 922.373 1316.77 925.037 1230.69C927.724 1143.84 1059.28 1136.22 1134.91 1093.43C1179.99 1067.93 1220.59 1038.91 1272.17 1034.31Z" fill="#FF9F7D"/>
</g>
<g filter="url(#filter6_f_0_1)">
<path fill-rule="evenodd" clip-rule="evenodd" d="M-166.516 1580.29C-89.7309 1567.24 -5.81833 1583.4 51.0837 1636.59C109.39 1691.08 136.392 1774.99 126.541 1854.19C117.569 1926.31 62.4343 1981.89 2.94 2023.64C-46.2103 2058.13 -107.022 2051.72 -166.516 2059.83C-243.29 2070.29 -322.892 2116.79 -389.451 2077.12C-465.11 2032.03 -527.288 1940.85 -511.543 1854.19C-496.347 1770.55 -387.475 1752.66 -320.896 1699.81C-267.908 1657.74 -233.213 1591.62 -166.516 1580.29Z" fill="#FF9F7D"/>
</g>
<g filter="url(#filter7_f_0_1)">
<path fill-rule="evenodd" clip-rule="evenodd" d="M1089.83 1527.43C1144.56 1532.4 1171.57 1591.23 1213.83 1626.39C1264.5 1668.55 1344.75 1685.91 1357.96 1750.52C1372.15 1819.93 1335.17 1897.24 1277.63 1938.51C1224.71 1976.46 1154.69 1948.26 1089.83 1942.82C1033.8 1938.12 976.846 1942.09 931.053 1909.45C876.373 1870.47 817.868 1817.68 820.06 1750.52C822.229 1684.04 889.869 1644.01 941.096 1601.64C985.491 1564.93 1032.47 1522.23 1089.83 1527.43Z" fill="black"/>
</g>
<g filter="url(#filter8_f_0_1)">
<path fill-rule="evenodd" clip-rule="evenodd" d="M970.78 1800.97C1061.41 1776.78 1200.21 1758.89 1237.92 1844.78C1279.35 1939.13 1141.78 2014.82 1107.32 2111.92C1092.54 2153.57 1112.62 2197.42 1097.97 2239.11C1064.58 2334.13 1063.97 2462.24 970.78 2500.44C869.629 2541.91 747.672 2489.47 666.85 2415.85C582.887 2339.38 509.04 2219.91 544.215 2111.92C577.791 2008.85 728.601 2021.21 816.203 1957.35C877.774 1912.46 897.163 1820.62 970.78 1800.97Z" fill="black"/>
</g>
<g filter="url(#filter9_f_0_1)">
<path fill-rule="evenodd" clip-rule="evenodd" d="M342.329 2487.12C441.397 2470.28 549.662 2491.14 623.078 2559.76C698.306 2630.07 733.144 2738.33 720.434 2840.51C708.859 2933.56 637.723 3005.28 560.963 3059.14C497.548 3103.64 419.089 3095.37 342.329 3105.83C243.274 3119.33 140.57 3179.32 54.6953 3128.14C-42.921 3069.96 -123.144 2952.32 -102.83 2840.51C-83.2235 2732.6 57.2444 2709.52 143.145 2641.32C211.511 2587.05 256.275 2501.75 342.329 2487.12Z" fill="#FF9F7D"/>
</g>
<defs>
<filter id="filter0_f_0_1" x="-66" y="0" width="648.598" height="666.959" filterUnits="userSpaceOnUse" color-interpolation-filters="sRGB">
<feFlood flood-opacity="0" result="BackgroundImageFix"/>
<feBlend mode="normal" in="SourceGraphic" in2="BackgroundImageFix" result="shape"/>
<feGaussianBlur stdDeviation="24.5" result="effect1_foregroundBlur_0_1"/>
</filter>
<filter id="filter1_f_0_1" x="876" y="0" width="807.508" height="644.473" filterUnits="userSpaceOnUse" color-interpolation-filters="sRGB">
<feFlood flood-opacity="0" result="BackgroundImageFix"/>
<feBlend mode="normal" in="SourceGraphic" in2="BackgroundImageFix" result="shape"/>
<feGaussianBlur stdDeviation="24.5" result="effect1_foregroundBlur_0_1"/>
</filter>
<filter id="filter2_f_0_1" x="-563" y="543" width="740.527" height="614.875" filterUnits="userSpaceOnUse" color-interpolation-filters="sRGB">
<feFlood flood-opacity="0" result="BackgroundImageFix"/>
<feBlend mode="normal" in="SourceGraphic" in2="BackgroundImageFix" result="shape"/>
<feGaussianBlur stdDeviation="24.5" result="effect1_foregroundBlur_0_1"/>
</filter>
<filter id="filter3_f_0_1" x="771" y="494" width="639" height="529" filterUnits="userSpaceOnUse" color-interpolation-filters="sRGB">
<feFlood flood-opacity="0" result="BackgroundImageFix"/>
<feBlend mode="normal" in="SourceGraphic" in2="BackgroundImageFix" result="shape"/>
<feGaussianBlur stdDeviation="24.5" result="effect1_foregroundBlur_0_1"/>
</filter>
<filter id="filter4_f_0_1" x="-66" y="984" width="648.598" height="666.959" filterUnits="userSpaceOnUse" color-interpolation-filters="sRGB">
<feFlood flood-opacity="0" result="BackgroundImageFix"/>
<feBlend mode="normal" in="SourceGraphic" in2="BackgroundImageFix" result="shape"/>
<feGaussianBlur stdDeviation="24.5" result="effect1_foregroundBlur_0_1"/>
</filter>
<filter id="filter5_f_0_1" x="876" y="984" width="807.508" height="644.473" filterUnits="userSpaceOnUse" color-interpolation-filters="sRGB">
<feFlood flood-opacity="0" result="BackgroundImageFix"/>
<feBlend mode="normal" in="SourceGraphic" in2="BackgroundImageFix" result="shape"/>
<feGaussianBlur stdDeviation="24.5" result="effect1_foregroundBlur_0_1"/>
</filter>
<filter id="filter6_f_0_1" x="-563" y="1527" width="740.527" height="614.875" filterUnits="userSpaceOnUse" color-interpolation-filters="sRGB">
<feFlood flood-opacity="0" result="BackgroundImageFix"/>
<feBlend mode="normal" in="SourceGraphic" in2="BackgroundImageFix" result="shape"/>
<feGaussianBlur stdDeviation="24.5" result="effect1_foregroundBlur_0_1"/>
</filter>
<filter id="filter7_f_0_1" x="771" y="1478" width="639" height="529" filterUnits="userSpaceOnUse" color-interpolation-filters="sRGB">
<feFlood flood-opacity="0" result="BackgroundImageFix"/>
<feBlend mode="normal" in="SourceGraphic" in2="BackgroundImageFix" result="shape"/>
<feGaussianBlur stdDeviation="24.5" result="effect1_foregroundBlur_0_1"/>
</filter>
<filter id="filter8_f_0_1" x="486.234" y="1732" width="808.387" height="832.079" filterUnits="userSpaceOnUse" color-interpolation-filters="sRGB">
<feFlood flood-opacity="0" result="BackgroundImageFix"/>
<feBlend mode="normal" in="SourceGraphic" in2="BackgroundImageFix" result="shape"/>
<feGaussianBlur stdDeviation="24.5" result="effect1_foregroundBlur_0_1"/>
</filter>
<filter id="filter9_f_0_1" x="-155" y="2432.59" width="927" height="764.878" filterUnits="userSpaceOnUse" color-interpolation-filters="sRGB">
<feFlood flood-opacity="0" result="BackgroundImageFix"/>
<feBlend mode="normal" in="SourceGraphic" in2="BackgroundImageFix" result="shape"/>
<feGaussianBlur stdDeviation="24.5" result="effect1_foregroundBlur_0_1"/>
</filter>
</defs>
</svg>
